<svg width="450" height="449" viewBox="0 0 450 449" fill="none" xmlns="http://www.w3.org/2000/svg">
<path d="M428.83 220.27H410.568V55.84C410.568 25.602 385.951 0.995972 355.689 0.995972C326.806 0.995972 303.123 23.422 301.017 51.754C272.47 54.4806 250.06 78.582 250.06 107.832C250.06 110.926 252.568 113.434 255.662 113.434H357.162C360.255 113.434 362.763 110.926 362.763 107.832C362.763 78.723 340.572 54.699 312.22 51.781C314.275 29.613 332.978 12.195 355.689 12.195C379.775 12.195 399.369 31.773 399.369 55.84V220.27H21.1692C10.0442 220.27 0.997192 229.317 0.997192 240.442V268.29C0.997192 279.415 10.0441 288.462 21.1692 288.462H23.0169L44.6619 369.724C48.1033 390.576 63.9119 406.482 83.8959 410.591L67.3299 440.7C65.8377 443.411 66.826 446.813 69.5369 448.305C70.3924 448.774 71.3181 448.997 72.2322 448.997C74.2088 448.997 76.1228 447.95 77.1424 446.095L96.0874 411.657H353.747L372.692 446.095C373.716 447.95 375.63 448.997 377.607 448.997C378.521 448.997 379.442 448.774 380.298 448.302C383.009 446.809 383.997 443.407 382.505 440.696L365.837 410.399C385.423 406.036 400.833 390.36 404.126 370.251L425.888 288.458H428.829C439.954 288.458 449.001 279.411 449.001 268.286V240.438C449.001 229.317 439.954 220.27 428.829 220.27L428.83 220.27ZM351.217 102.23H261.608C264.374 79.968 283.417 62.679 306.413 62.679C329.413 62.679 348.452 79.968 351.218 102.23H351.217ZM393.19 367.9C390.077 386.763 373.932 400.459 354.795 400.459H94.115C74.978 400.459 58.834 386.764 55.607 367.369L34.611 288.459H414.301L393.19 367.9ZM437.803 268.287C437.803 273.232 433.78 277.26 428.83 277.26H21.1703C16.225 277.26 12.1976 273.236 12.1976 268.287V240.439C12.1976 235.494 16.221 231.466 21.1703 231.466H428.83C433.776 231.47 437.803 235.494 437.803 240.443V268.287Z" fill="#005C8A"/>
<path d="M348.42 188.51V141.92C348.42 138.826 345.912 136.318 342.818 136.318C339.725 136.318 337.217 138.826 337.217 141.92V188.51C337.217 191.604 339.725 194.112 342.818 194.112C345.912 194.108 348.42 191.6 348.42 188.51Z" fill="#005C8A"/>
<path d="M312.01 188.51V141.92C312.01 138.826 309.502 136.318 306.408 136.318C303.315 136.318 300.807 138.826 300.807 141.92V188.51C300.807 191.604 303.315 194.112 306.408 194.112C309.502 194.108 312.01 191.6 312.01 188.51Z" fill="#005C8A"/>
<path d="M275.6 188.51V141.92C275.6 138.826 273.092 136.318 269.998 136.318C266.905 136.318 264.397 138.826 264.397 141.92V188.51C264.397 191.604 266.905 194.112 269.998 194.112C273.092 194.108 275.6 191.6 275.6 188.51Z" fill="#005C8A"/>
</svg>
