<?xml version="1.0" encoding="utf-8"?>
<!-- Generator: Adobe Illustrator 24.0.1, SVG Export Plug-In . SVG Version: 6.00 Build 0)  -->
<svg version="1.1" xmlns="http://www.w3.org/2000/svg" xmlns:xlink="http://www.w3.org/1999/xlink" x="0px" y="0px"
	 viewBox="0 0 511.6 538" style="enable-background:new 0 0 511.6 538;" xml:space="preserve">
<style type="text/css">
	.st0{display:none;}
	.st1{display:inline;fill:#FFFFFF;}
	.st2{display:inline;fill-rule:evenodd;clip-rule:evenodd;fill:#004DA5;}
</style>
<g id="Calque_1">
	<path d="M61.9,538h387.8c16.4,0,32.2-6.6,43.8-18.2c11.6-11.6,18.1-27.4,18.2-43.8V107.4c0-16.4-6.6-32.2-18.2-43.8
		c-11.6-11.6-27.4-18.1-43.8-18.2h-70V11.7C379.7,5.2,374.5,0,368,0c-6.4,0-11.7,5.2-11.7,11.7v33.8H155.3V11.7
		c0-6.4-5.2-11.7-11.7-11.7C137.2,0,132,5.2,132,11.7v33.8h-70c-16.4,0-32.2,6.6-43.8,18.2C6.6,75.3,0,91,0,107.4V476
		c0,16.4,6.6,32.2,18.2,43.8C29.8,531.4,45.5,538,61.9,538L61.9,538z M449.7,514.6H61.9c-10.2,0-20-4.1-27.3-11.3
		c-7.2-7.2-11.3-17-11.3-27.3V246.6H346c6.4,0,11.7-5.2,11.7-11.7c0-6.4-5.2-11.7-11.7-11.7H23.3v-18.7h465V476
		c0,10.2-4.1,20-11.3,27.3C469.8,510.6,460,514.6,449.7,514.6L449.7,514.6z M61.9,68.8h70l0,34.4c0,6.4,5.2,11.7,11.7,11.7
		c6.4,0,11.7-5.2,11.7-11.7V68.8h201.1v34.4c0,6.4,5.2,11.7,11.7,11.7c6.4,0,11.7-5.2,11.7-11.7V68.8h70c10.2,0,20,4.1,27.3,11.3
		c7.2,7.2,11.3,17.1,11.3,27.3v73.9h-465v-73.9c0-10.2,4.1-20,11.3-27.3C41.9,72.9,51.7,68.8,61.9,68.8L61.9,68.8z"/>
	<path d="M151.9,323c-0.6-0.5-1.1-1-1.7-1.5c-0.7-0.4-1.3-0.7-2-1.1c-0.8-0.2-1.5-0.5-2.2-0.7h0c-2.3-0.4-4.6-0.2-6.8,0.7
		c-1.4,0.6-2.7,1.4-3.7,2.6c-1.1,1-2,2.3-2.6,3.7c-0.6,1.4-0.9,2.9-0.9,4.4c0,3.1,1.3,6.1,3.5,8.3c2.1,2.2,5.1,3.4,8.2,3.4
		c0.8,0,1.6,0,2.3-0.1c0.7-0.2,1.4-0.5,2.2-0.7c0.7-0.3,1.3-0.7,2-1l0,0c0.6-0.5,1.2-1,1.7-1.5c2.2-2.2,3.4-5.2,3.4-8.3
		c0-1.5-0.3-3-0.8-4.4C153.8,325.4,152.9,324.1,151.9,323L151.9,323z"/>
	<path d="M151.9,403.7c-4.6-4.3-11.8-4.3-16.4,0c-3.4,3.3-4.4,8.3-2.6,12.7s6,7.2,10.8,7.2c3.1,0,6.1-1.2,8.3-3.4
		c2.2-2.2,3.4-5.2,3.4-8.3c0-1.5-0.3-3-0.8-4.4C153.9,406.1,153,404.8,151.9,403.7L151.9,403.7z"/>
	<path d="M264.1,323c-4.7-4.3-11.9-4.3-16.6,0c-1.1,1.1-1.9,2.3-2.5,3.7c-0.6,1.4-0.9,2.9-0.9,4.4c0,3.1,1.2,6.1,3.4,8.3
		c4.6,4.5,12,4.5,16.6,0c2.1-2.2,3.4-5.2,3.4-8.3C267.4,328.1,266.2,325.2,264.1,323L264.1,323z"/>
	<path d="M262.4,402.3c-0.7-0.4-1.4-0.8-2.1-1.1c-0.7-0.3-1.4-0.6-2.1-0.7c-3.8-0.8-7.8,0.4-10.6,3.1c-1.1,1.1-1.9,2.4-2.5,3.9
		c-0.6,1.4-0.9,2.9-0.9,4.4c0,3.1,1.2,6.1,3.4,8.3c2.2,2.2,5.2,3.4,8.3,3.4c0.8,0,1.6-0.1,2.3-0.2c0.7-0.1,1.4-0.4,2.1-0.7
		c0.7-0.3,1.4-0.6,2.1-1c0.6-0.5,1.2-0.9,1.8-1.4h0c4.5-4.6,4.5-12,0-16.6C263.6,403.2,263,402.8,262.4,402.3L262.4,402.3z"/>
	<path d="M372.5,320.4c-2.9-1.2-6.1-1.2-9,0c-1.4,0.6-2.7,1.4-3.7,2.6c-2.2,2.1-3.4,5.1-3.4,8.2c0,0.8,0,1.6,0.2,2.3
		c0.1,0.8,0.3,1.5,0.6,2.2c0.3,0.7,0.7,1.3,1.2,2c0.4,0.6,0.9,1.2,1.4,1.8c2.2,2.2,5.2,3.4,8.3,3.4c3.1,0,6.1-1.2,8.3-3.4l1.4-1.8v0
		c0.4-0.6,0.8-1.3,1.1-2c0.3-0.7,0.5-1.5,0.7-2.2c0.1-0.8,0.2-1.6,0.2-2.3C379.7,326.5,376.9,322.2,372.5,320.4L372.5,320.4z"/>
	<path d="M359.8,403.7c-1.1,1.1-1.9,2.4-2.6,3.9c-0.6,1.4-0.8,2.9-0.8,4.4c0,3.1,1.2,6.1,3.4,8.3c2.2,2.2,5.2,3.4,8.3,3.4
		c4.7,0,9-2.8,10.8-7.2c1.8-4.4,0.8-9.4-2.6-12.7C371.6,399.4,364.4,399.4,359.8,403.7L359.8,403.7z"/>
	<path d="M408.8,226.8c-1.1,1.1-2,2.3-2.6,3.7c-0.6,1.4-0.8,2.9-0.8,4.4c-0.1,3.1,1.2,6.1,3.4,8.3c2.2,2.2,5.2,3.5,8.3,3.5
		c3.1,0,6-1.3,8.2-3.5c2.2-2.2,3.5-5.2,3.5-8.3c0-3.1-1.3-6-3.5-8.2C420.6,222.4,413.4,222.4,408.8,226.8L408.8,226.8z"/>
</g>
<g id="Calque_3" class="st0">
	<rect x="23.3" y="204.7" class="st1" width="440.5" height="265.3"/>
</g>
<g id="Calque_2" class="st0">
	<path class="st2" d="M390.7,293.3L247.5,427.7c-10.6,12.4-28.3,12.4-38.9,0l-76-76c-23-26.5,15.9-63.6,40.7-38.9l54.8,58.3
		l125.5-118.5C380.1,235,411.9,270.4,390.7,293.3L390.7,293.3z"/>
</g>
</svg>
