<svg width="383" height="369" viewBox="0 0 383 369" fill="none" xmlns="http://www.w3.org/2000/svg">
<path d="M370.713 144.743C319.466 161.514 282.589 161.514 250.022 154.806C245.712 153.847 242.839 150.014 242.839 145.702C244.276 108.329 241.403 64.7259 215.061 5.3131C211.229 -3.79147 197.341 -0.435586 197.819 9.62461C200.692 62.332 188.241 94.4337 170.041 123.181C167.646 126.537 163.814 127.974 159.982 127.015C121.666 115.515 75.6902 107.851 7.68071 117.433C-1.89712 118.87 -2.85585 132.767 6.7219 135.16C27.3144 140.431 45.0375 146.661 59.8836 153.847C81.9163 164.388 97.7177 176.845 111.131 191.698C114.004 194.572 114.485 199.365 112.09 202.717C98.6799 223.8 86.2293 248.235 76.17 278.421C68.0286 301.9 61.8011 328.251 56.5328 357.478C55.0963 367.06 67.0694 372.331 72.8158 364.186C85.7478 346.459 98.1993 329.688 110.65 314.834C127.414 294.71 144.174 279.377 161.416 267.879C165.248 265.483 170.517 265.964 173.389 269.794C190.154 289.44 210.746 309.563 236.61 329.687C252.893 342.625 271.572 355.082 290.731 367.538C299.35 372.809 308.931 362.745 302.704 354.6C290.253 337.828 279.716 321.538 271.094 306.686C257.683 283.207 250.02 261.646 245.71 241.044C244.751 236.733 247.147 231.94 251.456 230.503C273.966 222.836 297.913 213.254 324.733 197.923C342.453 187.859 360.653 175.403 380.291 160.072C386.995 154.324 380.29 141.389 370.713 144.742L370.713 144.743ZM37.375 130.368C36.8972 132.283 35.4607 133.242 33.5431 132.764C31.6288 132.286 30.67 130.849 31.1477 128.93C31.6254 127.015 33.062 126.056 34.9796 126.534C36.4195 126.534 37.856 128.452 37.375 130.368ZM55.0981 130.849C54.6204 133.245 52.225 134.682 49.8297 134.205C47.4343 133.727 45.9978 131.33 46.4755 128.934C46.9532 126.537 49.3486 125.1 51.7439 125.578C54.1393 126.534 55.5758 128.93 55.0981 130.849ZM77.1274 134.201C76.1686 137.557 72.8177 139.95 69.4637 138.994C66.1095 138.035 63.7175 134.682 64.6729 131.327C65.6317 127.971 68.9826 125.578 72.3367 126.534C75.6908 127.015 78.0862 130.849 77.1274 134.201ZM102.992 138.513C102.033 143.305 97.2453 146.18 92.455 145.221C87.6646 144.261 84.7913 139.472 85.7501 134.679C86.7089 129.887 91.4962 127.012 96.2866 127.972C101.074 129.412 103.947 133.724 102.992 138.513ZM110.655 145.221C112.092 139.472 117.838 135.639 123.587 137.076C129.334 138.513 133.165 144.261 131.729 150.013C130.292 155.762 124.546 159.595 118.797 158.158C113.047 156.721 109.215 150.972 110.655 145.221V145.221ZM86.7085 313.879C85.7497 315.316 83.8354 315.794 82.3989 314.838C80.9623 313.879 80.4846 311.964 81.4401 310.526C82.3989 309.089 84.3132 308.611 85.7497 309.567C87.1863 310.045 87.664 311.964 86.7085 313.879ZM93.4134 298.548C91.9769 300.463 89.5815 301.422 87.1863 299.985C85.272 298.548 84.3132 296.151 85.7497 293.755C87.1863 291.84 89.5816 290.881 91.9769 292.318C93.8912 293.755 94.85 296.152 93.4134 298.548ZM103.947 281.776C102.032 284.65 98.2004 286.088 94.846 284.173C91.9729 282.257 90.5363 278.424 92.4506 275.068C94.3649 272.194 98.1968 270.756 101.551 272.672C104.905 274.59 105.864 278.424 103.947 281.776ZM117.36 261.175C114.965 265.486 109.696 266.445 105.387 264.049C101.077 261.653 100.118 256.382 102.514 252.071C104.909 247.759 110.177 246.8 114.487 249.196C118.797 252.071 119.752 257.341 117.36 261.175ZM137.953 241.048C134.598 246.319 127.893 247.756 123.107 244.882C117.838 241.526 116.402 234.818 119.275 230.029C122.629 224.758 129.334 223.321 134.121 226.196C139.389 229.07 141.307 235.781 137.953 241.048ZM137.953 162.95C139.389 155.765 146.572 151.45 153.757 152.887C160.94 154.324 165.253 161.51 163.817 168.698C162.38 175.884 155.198 180.199 148.012 178.762C140.826 176.844 136.517 169.658 137.953 162.95V162.95ZM166.69 219.969C162.858 226.199 154.717 228.114 148.49 224.281C142.263 220.447 140.349 212.302 144.18 206.073C148.012 199.843 156.154 197.928 162.381 201.761C168.127 205.595 170.041 213.74 166.69 219.969ZM225.12 81.4971C225.12 86.2899 221.288 90.12 216.501 90.12C211.711 90.12 207.882 86.2864 207.882 81.4971C207.882 76.7043 211.714 72.8743 216.501 72.8743C221.289 72.8709 225.12 76.7045 225.12 81.4971ZM221.288 57.54C221.288 61.3735 218.415 64.2478 214.584 64.2478C210.752 64.2478 207.879 61.3735 207.879 57.54C207.879 53.7064 210.752 50.8322 214.584 50.8322C218.415 50.8322 221.288 53.7065 221.288 57.54ZM217.457 37.4134C217.457 39.8098 215.542 41.7249 213.147 41.7249C210.752 41.7249 208.837 39.8098 208.837 37.4134C208.837 35.017 210.752 33.1019 213.147 33.1019C215.539 33.1019 217.457 35.0204 217.457 37.4134ZM210.271 17.7711C212.185 17.7711 213.625 19.2083 213.625 21.1268C213.625 23.0419 212.188 24.4824 210.271 24.4824C208.356 24.4824 206.916 23.0452 206.916 21.1268C206.92 19.2083 208.356 17.7711 210.271 17.7711ZM211.229 98.7471C217.457 98.7471 222.244 103.54 222.244 109.767C222.244 115.996 217.453 120.786 211.229 120.786C205.002 120.786 200.215 115.993 200.215 109.767C200.215 103.537 205.483 98.7471 211.229 98.7471ZM200.215 129.412C207.397 129.412 213.147 135.161 213.147 142.35C213.147 149.536 207.401 155.288 200.215 155.288C193.032 155.288 187.283 149.539 187.283 142.35C186.805 135.161 193.029 129.412 200.215 129.412ZM173.873 184.512C173.873 174.93 181.536 167.263 191.114 167.263C200.692 167.263 208.356 174.93 208.356 184.512C208.356 194.094 200.692 201.761 191.114 201.761C181.536 201.761 173.873 194.094 173.873 184.512ZM191.592 233.864C187.283 228.115 188.719 219.97 194.946 215.655C200.693 211.344 208.834 212.781 213.147 219.011C217.456 224.76 216.02 232.904 209.793 237.219C203.565 241.049 195.424 239.612 191.592 233.864ZM202.61 265.966C199.256 261.173 200.215 254.466 205.006 250.632C209.796 247.276 216.501 248.235 220.333 253.028C223.687 257.821 222.729 264.529 217.938 268.363C213.147 271.718 206.443 270.759 202.61 265.966ZM228.949 292.32C225.117 295.194 219.371 294.235 216.976 290.405C214.103 286.571 215.061 280.823 218.89 278.426C222.722 275.552 228.468 276.511 230.863 280.341C234.218 284.175 233.262 289.923 228.949 292.32ZM261.996 328.734C263.433 327.775 265.351 328.256 266.787 329.693C267.746 331.13 267.265 333.049 265.828 334.486C264.392 335.445 262.474 334.964 261.038 333.527C260.56 331.611 260.56 329.693 261.996 328.734ZM249.545 316.277C251.459 314.84 254.336 315.318 255.772 317.236C257.209 319.151 256.731 322.029 254.813 323.466C252.899 324.903 250.023 324.425 248.586 322.507C247.15 320.11 247.627 317.236 249.545 316.277ZM244.277 300.465C246.191 303.34 245.713 307.651 242.84 309.57C239.967 311.485 235.657 311.007 233.739 308.133C231.825 305.258 232.303 300.947 235.176 299.028C238.53 297.113 242.362 297.591 244.277 300.465ZM235.654 196.012C228.471 197.927 221.285 193.616 219.849 186.908C217.935 179.722 222.245 172.532 228.95 171.096C236.132 169.181 243.319 173.492 244.755 180.2C246.672 186.908 242.363 194.094 235.654 196.012ZM269.66 196.012C263.914 197.449 257.687 194.097 256.25 188.345C254.813 182.596 258.164 176.367 263.914 174.929C269.66 173.492 275.887 176.844 277.324 182.596C278.76 188.823 275.406 194.575 269.66 196.012ZM297.438 191.697C292.647 193.135 287.86 190.26 286.902 185.467C285.465 180.675 288.338 175.885 293.129 174.926C297.919 173.967 302.707 176.363 303.665 181.156C304.621 185.471 302.229 190.261 297.438 191.697ZM319.948 181.637C316.594 182.596 312.765 180.678 311.807 176.844C310.848 173.489 312.765 169.658 316.597 168.699C319.952 167.74 323.78 169.659 324.739 173.492C325.217 177.326 323.299 181.156 319.948 181.637ZM338.148 173.011C335.753 173.489 333.358 172.052 332.88 170.136C332.402 167.74 333.839 165.344 335.753 164.866C338.148 164.388 340.544 165.825 341.022 167.74C341.499 169.658 340.54 172.533 338.148 173.011ZM352.995 164.866C351.08 165.344 349.64 164.388 349.163 162.469C348.685 160.554 349.64 159.114 351.558 158.636C353.472 158.158 354.912 159.114 355.39 161.032C355.868 162.469 354.909 164.388 352.995 164.866Z" fill="black"/>
</svg>
