<svg width="276" height="277" viewBox="0 0 276 277" fill="none" xmlns="http://www.w3.org/2000/svg">
<path d="M138 0.817139C61.868 0.817139 0.0159912 62.7475 0.0159912 138.852C0.0159912 214.956 61.868 276.785 138 276.785C214.132 276.785 275.984 214.956 275.984 138.852C275.984 62.7475 214.132 0.817139 138 0.817139V0.817139ZM138 13.4541C207.35 13.4541 263.44 69.5213 263.44 138.849C263.44 208.177 207.35 264.149 138 264.149C68.6496 264.149 12.56 208.18 12.56 138.849C12.56 69.5213 68.6496 13.4541 138 13.4541V13.4541ZM138 69.8853C134.535 69.8853 131.729 72.6918 131.729 76.1545C131.729 79.6171 134.537 82.4237 138 82.4237C141.465 82.4237 144.271 79.6171 144.271 76.1545C144.271 72.6918 141.463 69.8853 138 69.8853ZM137.313 101.136C134.082 101.49 131.658 104.255 131.728 107.504V201.55C131.704 203.228 132.354 204.845 133.533 206.041C134.712 207.236 136.32 207.909 138 207.909C139.68 207.909 141.288 207.236 142.467 206.041C143.646 204.845 144.296 203.228 144.272 201.55V107.504C144.311 105.697 143.569 103.962 142.237 102.744C140.903 101.523 139.109 100.939 137.313 101.136L137.313 101.136Z" fill="#005C8A"/>
</svg>
