<?xml version="1.0" encoding="utf-8"?>
<!-- Generator: Adobe Illustrator 24.0.1, SVG Export Plug-In . SVG Version: 6.00 Build 0)  -->
<svg version="1.1" id="Calque_1" xmlns="http://www.w3.org/2000/svg" xmlns:xlink="http://www.w3.org/1999/xlink" x="0px" y="0px"
	 viewBox="0 0 944.3 430.5" style="enable-background:new 0 0 944.3 430.5;" xml:space="preserve">
<style type="text/css">
	.st0{fill:#005C8A;}
	.st1{fill:#231F20;}
</style>
<g>
	<path class="st0" d="M79.1,289.2c0,0-5.8-17.6-14.7-16c0,0,6.1,3,6.3,9.2C73.6,282.8,78.8,288.7,79.1,289.2z"/>
	<path class="st0" d="M73.6,272.3c-4.1-6.2-10.1-7.5-14.8-5.1c-13.4,6.7-2.6,23.3,7.8,16.4c1.9-1.2,2.3-4,1-5.8
		c-2-2.7-6.8-3.7-9.8,0.5c0.1-1.7,0.1-3,0.6-4.1C61.9,266.7,73.7,272.5,73.6,272.3L73.6,272.3z"/>
	<path class="st0" d="M67.5,255.8l0,4.6c0,0-14.6-7.3-25.3,0.6C49.3,251.2,66.1,255,67.5,255.8L67.5,255.8z"/>
	<path class="st0" d="M71.8,267.3c0,0-18.7-10.3-26.3-0.7c0,0,2.9,0,4.4,1.4c3.7,3.4,1.2,9.3-3.4,9.2c-8.4-0.1-10.2-8.1-4.6-13.7
		c2.9-2.9,8-5.2,14.2-4.6C63.9,259.8,67.7,262.1,71.8,267.3L71.8,267.3z"/>
	<path class="st0" d="M68,253.8c0.1-0.1,1.4-5.4-0.2-12.1c-1.3-5.6-5-12.6-9.4-14.6c0,0-2.6,3.8-5.7,4.8c3,1.8,8,5,10.8,8.8
		C68,247,67.9,253.9,68,253.8L68,253.8z"/>
	<path class="st0" d="M60.1,219.8c0,0,0.4,1.6-0.9,5.3c0,0,13,7.6,10.8,28.9C74.3,244.6,72.8,228.4,60.1,219.8L60.1,219.8z"/>
	<path class="st0" d="M60.1,217.5c0,0,14.3,4.5,14.4,28.4c0,0,5.2-24.7-13.6-39.8c-8.4-5.3-21.9-5.6-26.2,5.4
		c-4.4,11.2,4.6,16.2,12.5,16.1c13.3-0.2,12.9-16.1,2.7-16.6C59.2,211.5,60.1,217.5,60.1,217.5L60.1,217.5z"/>
	<path class="st0" d="M77.6,257.3c0,0,6.5-39.3-16.6-53.9c-7.5-4.8-19.7-3.6-25.5,3.5c-14.9,18.4,19.3,28.4,21.5,14
		c0,0-0.1,12.9-20.1,10.1c-12.5-1.5-15.9-16.5-8-26c12.2-11.2,23.6-12.7,32.9-7.8c11.6,6.2,19.2,21,19.5,29.4
		c0,0.2-3.1,5.1,1.3,11.4C83.8,239.6,79.3,253.2,77.6,257.3L77.6,257.3z"/>
	<path class="st0" d="M111.1,201.4c-3.5-2.7-1.1-6.1,2.4-5.8c4.9,0.3,7.3,5.7,6.7,10.1c-0.4,3.1-2.1,6.1-5,7.8
		c-13.1,7.4-26.5-8.8-16-20.7c16.5-18.7,47.8-4,43.2,22.9c0,0-3.9-24.8-23.5-21.1c-4.1-2.8-9.6-2.1-11.3,1.6
		C104.8,201.8,112.8,202.7,111.1,201.4L111.1,201.4z"/>
	<path class="st0" d="M120.4,196.2c0,0.1,3.3,2.4,2.5,9.3c0.5-0.2,19,7,10,32.9c10.1-16.9,7.1-29.6,1.9-35.9
		C128.9,195.5,120.4,196.1,120.4,196.2L120.4,196.2z"/>
	<path class="st0" d="M122.4,208.3c-0.3,0-1.2,4.2-5.4,6.7c0,0,18.1,12.1,1.8,40.2C147.5,225.3,127.1,207.7,122.4,208.3L122.4,208.3
		z"/>
	<path class="st0" d="M115,216.2c0,0-3.2,1.9-7.7,1.7c0,0,25.2,15.4-1.4,47C131.6,244.8,125.1,224.1,115,216.2L115,216.2z"/>
	<path class="st0" d="M83.5,238.9c-0.4-0.3,4.5,3.4,9,2c2.2,2.5,0.6,7.1-2.7,11.9c-2.4,3.5-6.6,7.3-8,10.7
		C79.3,269.9,88.4,242.6,83.5,238.9L83.5,238.9z"/>
	<path class="st0" d="M83.5,224.8c-0.4,0.3,2.5-4.7,8.7-6.6c5.8-1.7,14.6-0.6,20.6,8.2c8.8,12.8-1.5,31.9-12.9,40.9
		c-8.1,6.4-13.6,15.2-14.5,19.8c0.7-20.1,27.6-34.4,23.2-53.1C106.1,223.6,93.4,217.6,83.5,224.8L83.5,224.8z"/>
	<path class="st0" d="M88.2,233c0.1-0.1,0.5-5.4,6.8-3.7c0,0,4.6,1.8,2.2,6.2c-1.3,2.6-4.8,4.2-7.6,3.8c-7.5-1-9.5-10.7-3.1-14.4
		c10.6-6,21.6,4.3,20.4,15.1c-1.9,16.6-18.2,24.7-21.6,40.3c0,0-6-12.1,1.2-20.3c0,0,12.2-12.9,8.1-20.1c0,0,4.2-2,5-5.9
		c1.2-6.1-6.2-7.8-8.6-6.6C87.5,229.3,87.7,234.1,88.2,233L88.2,233z"/>
	<path class="st0" d="M101,188.4c0,0,3.1-7.4,9-11.2c11.7-7.4,30.2,0.7,35.6,13.5c3.3,7.7,2.1,17.4-0.6,21.8
		c2-15.5-9.8-26.2-16.7-28.6C115.5,179.3,107.4,183.5,101,188.4L101,188.4z"/>
	<path class="st0" d="M98,191.1c0,0,1.3-6.3-4.1-12.5c0,0,8.1-20.9,33.2-13.2c0,0,27.7,8.8,23,35.7c-0.8-14.5-10.3-24.4-21.8-27.8
		C116.4,169.8,101.6,174.4,98,191.1L98,191.1z"/>
	<path class="st0" d="M92,176.8c0,0-4.7-3-8.8-1.2c3.2-33.4,85.3-23.2,70.5,33.9c4.6-24.5-10.4-45.2-34.2-48
		C109.3,160.4,97.3,165.1,92,176.8L92,176.8z"/>
	<path class="st0" d="M80.8,176.3c0,0.4-0.4,0.8-0.7,1.2c-3.2,4.4-1.8,8.7,3,10.3c-9-8.7,7.7-17.1,11.8-3.5
		c2.7,8.9-3.7,16.1-13.1,17.5c-18.6,2.7-22.3-17.5-15.4-30.8c4.1-8,16.3-23.7,47.8-21.9c0,0,32.2,0.7,43.7,31.5
		c6,16.2,0,37.3-8.7,51c0,0,20.7-41.7-2.8-63.6c-9.1-8.7-25.4-15.2-39.9-13.7C94.1,155.8,81.2,162.2,80.8,176.3L80.8,176.3z"/>
	<path class="st0" d="M74.3,204.5c1.5,0.3,7.6,2.2,18.2-4.2c0,0-0.3,9.6,6.9,14.9c-5.4-1.3-12.8,1.6-16.5,6.1
		C79.9,208.6,72.8,204.2,74.3,204.5z"/>
	<path class="st0" d="M86.1,150.6c0.7,0.3,1.7-0.5,2.5-0.7c0,0-11.4-11.6-0.3-28.1c0,0-1.8-1.3-2.4-3.2c-0.4,0.2-7.2,3.9-8,12.9
		C77,140.6,83,149,86.1,150.6L86.1,150.6z"/>
	<path class="st0" d="M71.2,159.4c0,0,2-2,6.2-4.5c-16-15.1-29.4-50,3.7-59.1c8-2.2,20.5-0.6,16.3,10.3c0,0-9.7-1.1-10.3,6.2
		c0,0-1.3,9.6,10.2,9.4c0,0,9.5-0.7,11.9-11c6.7-28.4-54.4-28.9-53.8,9.1C55.7,142.4,71.6,159.5,71.2,159.4L71.2,159.4z"/>
	<path class="st0" d="M111.1,146.2c-3.5,0.1-6.7,0.4-9.7,0.8c-0.7,0.5-11-21.8,8.4-27.6c-4.9,3.6-6.3,14.4-3.3,20
		C108.6,143.5,111.1,146.2,111.1,146.2L111.1,146.2z"/>
	<path class="st0" d="M99.6,147.3c-1.5,0.2-3,0.5-4.4,0.8c0,0-8.9-13.5-0.2-24.7c0,0,4.1,0,5.1-0.5c-0.5,0.3-4,5.4-4.3,10.9
		C95.4,140.5,99.6,147.3,99.6,147.3L99.6,147.3z"/>
	<path class="st0" d="M90,149.5c1.1-0.3,2.3-0.7,3.5-1c0,0-4.1-5.4-4.2-13.1c-0.1-3.5,0.7-7.5,3-11.6c0.2-0.3-2.3-0.6-2.7-1.2
		c0,0.5-4,4.6-4.5,13.4C84.8,143.5,90,149.5,90,149.5L90,149.5z"/>
	<path class="st0" d="M85.5,110.3c0,0-1.2,4-0.1,6.5c0.5,0.3-18.3,7.4-4.7,31.2c-9.2-6.1-12.1-16.9-10.6-25.4
		C71.9,112.9,79.5,106,85.5,110.3L85.5,110.3z"/>
	<path class="st0" d="M86.2,107.9c0,0,4-5.1,10.7-3.1c0.6-9.4-13.6-10.4-24.4-3.3c-14.6,9.7-11.7,29.5-0.8,41.1
		c-2.7-5.8-4.2-16.4-3.2-21.1C70.6,110.6,78.8,104.4,86.2,107.9L86.2,107.9z"/>
	<path class="st0" d="M63.3,152.8c0,0-4.4-7.4-5.6-10.1c-0.7-1.5-11.2-3.5-12.4-1.6c0.6,1,0.7,3,0.8,4.3
		C54.6,145.7,57,148.5,63.3,152.8L63.3,152.8z"/>
	<path class="st0" d="M53.3,126c0,0,0.3,3.1,1.5,7.8c0,0-17.4-9.7-23.7,2.7c4.7-1.2,10.5,0.9,12.2,5.6c2,5.5-0.9,9.8-7.1,10
		c-13.1,0.4-19.8-15.6-8.4-25.5C36.7,118.7,53.6,126.3,53.3,126L53.3,126z"/>
	<path class="st0" d="M56.9,140.5c-0.7-1.7-1.2-3.3-1.6-4.8c0,0-13.1-7.2-19.8-1.2c0.3-0.1,5.2,0.1,9.1,4.9
		C49.4,137.1,56.9,140.5,56.9,140.5L56.9,140.5z"/>
	<path class="st0" d="M65.9,166.8c-0.2-0.3,1.3-2.5,2-3.4c0,0-8.1-16.9-22.1-16.5c-2.5,11.7-20.5,7.3-24.2-0.4
		c0,0-18.7,2.5-21.4,19.2c0,0-2,11.6,9.4,15.9c20.3,7.6,24.6-19.7,5.3-19.1c0,0,0.5-2.4,7.8-1.4C56.5,144,66.4,167.7,65.9,166.8
		L65.9,166.8z"/>
	<path class="st0" d="M63.2,171.6c0.1,0.2,1.1-2.4,1.7-3.5c0,0-10.8-21.2-40-5.7c0,0,3.4,2.1,4.3,6.2
		C43.1,156.5,57.5,163.2,63.2,171.6L63.2,171.6z"/>
	<path class="st0" d="M29.5,175.3c0.5-1.8,0.2-4.7,0.2-4.7c18.6-17,33.1,2.7,32.9,2.6c-0.3,0.7-0.5,1.5-0.7,2.3
		c-4.2-4.2-10.7-6.3-15.3-6.4C36.7,168.8,29.4,175.6,29.5,175.3L29.5,175.3z"/>
	<path class="st0" d="M61,179.2c0.2,0.1,0.3-1.7,0.5-2.5c0,0-7.2-7-17.9-6c-4.5,0.4-8.8,2.8-14.8,7c0,0-2.8,7.2-13.8,7.3
		c0,0-5.1,9.1,2.7,15c5.4,4.1,17.1,2.2,17.9-6.1c0.2-2.4-0.4-4.1-1.3-4.9c-1.5-1.4-5.1-1.1-4.8,3.4c-1.5-1.9-1.3-3.9-0.1-5.1
		c1.1-1.2,3.3-1.6,3.3-1.8c0,0.1,5.2-10.2,17.7-9.5C55.3,176.2,58.8,177.6,61,179.2L61,179.2z"/>
	<path class="st0" d="M62.3,194.7c-0.1,0-2.5-8.7-1.6-12.9c-0.8,0.1-8.1-0.1-14.4,3.1c-4.1,2.1-8.2,6.2-8.4,11.3
		C49.9,188.8,62.4,194.7,62.3,194.7L62.3,194.7z"/>
	<path class="st0" d="M34.4,185.9c0,0,9.5-14.7,26.3-5.5c0,0-16.7-1.3-23.1,11.1C37.6,187.2,34.4,185.9,34.4,185.9L34.4,185.9z"/>
	<path class="st0" d="M110.8,103.8c0-0.3,0-3.7-1.8-6.1c0,0,6.9-29.8,32.1-20.6c-0.2-0.1-1.3,3.1-0.5,5.3
		C119.9,84.2,110.7,103.9,110.8,103.8L110.8,103.8z"/>
	<path class="st0" d="M100,90.4c0,0,1.5,0.6,3.4,1.7c0,0,3-31.1,29.5-30.3c0,0,13.3,0.4,17.5,11.9c-6.1-0.5-9.2,4.3-8.4,8.1
		c1.7,8.2,17.2,8,16.6-7.9c-0.9-25.9-48.7-25.6-57.8,1.4C98.3,83.2,100.4,90.3,100,90.4L100,90.4z"/>
	<path class="st0" d="M104.9,93.2c0.5,0.5,2.2,1.8,3.2,2.9c0,0,6.5-30.5,33.6-20.4c0,0,1.4-3,5.8-3.3c-3.3-6.2-9.8-8.9-16.6-8.5
		c-10.7,0.6-19,7.5-22.7,17.3C105.9,87.3,104.9,93.1,104.9,93.2L104.9,93.2z"/>
	<path class="st0" d="M113.9,146.1c38,5.9,59.6,35.8,42.9,77.6c24-26.8,3.7-71.3-28.7-84c0,0-14.3,1.9-9-8.7c0,0-1.4,6,4,6.9
		c4.1,0.7,8.4-1.8,9.9-5.8c3.8-10.9-10.4-17.4-19.4-12.3c-4,2.3-7,8-6.8,12.9C107.1,140,113.8,146.1,113.9,146.1L113.9,146.1z"/>
	<path class="st0" d="M128.9,254.5c0.5-2.1,36.1-24.3,40-52.1c3-21.9-8.6-48.8-38.3-64.1c1.7-0.2,3.8-3.7,3.4-3.7
		c19.3,4.8,33.5,21.8,40.4,39.7C194.2,225.1,128.4,256.6,128.9,254.5L128.9,254.5z"/>
	<path class="st0" d="M135.2,127.4c0,0,0.9,2.5-0.6,5.7c-0.3,0.2,3.6,0.7,9.1,3.2C140,132.5,135.7,127.1,135.2,127.4L135.2,127.4z"
		/>
	<path class="st0" d="M127.1,116.8c-8.7-3.3-13.8,0.3-13.8,0.3s-4-29.1,27.7-32.2c1.3,1.7,3.3,3.4,6.7,4c3.1,0.5,7-0.5,9.7-1.4
		c0,0,32.8,32,29.6,85.1c0,0-2.8-35.5-25.4-59.4c5.6-22.8-30.3-29.4-35.9-8.3C124,111.5,127.2,116.9,127.1,116.8L127.1,116.8z"/>
	<path class="st0" d="M149.3,104.6c-5-7.4-13.5-3.4-15.1,4.3c-1.4,6.3,2.2,15,13.3,22.9c13.6,9.6,31.6,28.4,30.8,43.5
		c0,0-10.5-24.5-30-38.5c-8.6-6.5-21.9-17-20.8-28.4c1-10.6,11.2-15.6,20.4-13.4c7.3,1.7,16.4,11.5,10.7,18.3
		c-7.5,9.1-17.5-0.3-12.8-6.6C146.5,105.8,147.8,105.2,149.3,104.6L149.3,104.6z"/>
	<path class="st0" d="M146,104c0.3,0-8.5-2.8-10,5.7c-1.7,9.6,8,16.7,18.3,24.7c7.4,5.8,15.1,13.7,20.6,23.5
		c0,0-10.6-29.5-22.6-38.7C139,117.4,142.2,104.8,146,104z"/>
	<path class="st0" d="M160.3,115.1c0,0,7.3,7.4,14,20.6c6.5,12.8,12.5,31.1,8.6,47.1c-2.9-21.7-12.5-48.4-28-63.7
		C158.6,118.1,160.3,114.9,160.3,115.1L160.3,115.1z"/>
	<path class="st0" d="M88.6,301.4c2.4-33.5,51.1-44.4,67-60.7c3.8-3.4,9-0.4,3.4,5.8c-1.7,1.9-11.9,9.3-28.6,16
		C94.8,276.9,88.6,301.7,88.6,301.4L88.6,301.4z"/>
	<path class="st0" d="M91.3,301.3c0,0,12.4-24.3,56.1-32.4c4.9-0.9,10.3-1.8,15.5-3.9c9.9-4,18.4-11.1,18.3-22.1
		c-0.1-4.9-4.8-12-12.5-12.1c-3.5,0-7.9,2-6.9,6.7c0,0,1.2,3.3,4.9,2.6c7.4,0.8,6.8,7.6,3.4,12c-8.9,11.7-33.3,11.1-46.7,17.4
		C111,275.3,99.2,285.7,91.3,301.3L91.3,301.3z"/>
	<path class="st0" d="M134.4,262.7c0,0,20.2-7,25.9-14.6c1.8-2.3,3.3-4.1,5.3-4.7c4-1.2,5.8,1.8,4.4,5.1
		C165.3,259.2,143.2,261.7,134.4,262.7L134.4,262.7z"/>
	<path class="st0" d="M95.4,300.1c0,0,15.4-23,34.6-21.9c7.2,0.4,14.1,5.9,10.1,14.6c0,0-4.4,8.7-14.8,5.1c-6.9-3.5-2.4-11.8,4.4-10
		c1.9,0.5,3.6,1.7,3.1,4.5c5.6-9.4-3.8-11.7-13.1-8.1C110,288.1,98.4,296.6,95.4,300.1L95.4,300.1z"/>
	<path class="st0" d="M127.7,286c0,0-5.5,0.3-7.2,4.5c0,0-6.9-0.6-13.2,3.8C109.2,289.8,125.6,282,127.7,286L127.7,286z"/>
	<path class="st0" d="M53.3,124c0,0-7.8-3.9-15.2-3.6c0,0-0.3-6.5,3.7-9.9c2.4-2,6.6-2.9,12.4-0.5C54.1,110,51.5,117.5,53.3,124
		L53.3,124z"/>
	<path class="st0" d="M98.3,75.7c-0.2,0.1-2.3,8.6-0.9,13.7c0,0-7.9-2.8-16.9-1.1c-0.8-7.2,1.2-10.3,3.9-12.4
		C90.2,71.2,98.9,75.4,98.3,75.7L98.3,75.7z"/>
	<path class="st0" d="M19.8,136.4c-0.8-0.1,0.3,7.1,0.9,7.9c0,0-7.4,1.3-13.2,5.8C4.5,140.3,12.4,132,19.8,136.4L19.8,136.4z"/>
</g>
<g>
	<g>
		<path class="st1" d="M445.6,162.9l0.4-2.1c3.8-21.9,17.2-42.3,28.8-62.6s25.4-40.6,37.7-60.6c7.9-12.7,22.7-36.3,36.7-37.6
			c5.1-0.4,4.8,1.3,3.8,6.2c-8.2,37.4-68.3,111.7-98.8,143.2c-1.4,3.9-2.4,8.5-3.8,12.7c-1,3.1-2,8.4-1.4,12.5
			c0.7,4.4,2.4,8.3,7.5,7.9c8.9-0.8,21.6-14.3,27.4-20.3l5.8-6l6.2-7.7l0.7-1.4c0.4-1,1.4-1.5,2-1.9l0.4-0.4c1-0.4,2-0.9,2.7-0.6
			c0.7,0.3,0.7,1.3,0.4,2.3c-1.4,7-29.8,31.1-39.8,38.5c-1,0.8-2.7,0.9-3.8,1.4l-1.4,0.4c-1.4,0.5-3.1,1-4.4,0.7
			C443.2,187.1,443.8,172.6,445.6,162.9z M457.9,140.1l4.4-4.8c28.5-31,76.5-91.5,85.4-128.6l-0.3-0.7c-8.2,2.4-16.5,10.4-22.7,19.1
			s-11.7,18.5-15.4,25c-17.2,27.9-35,55.2-48.7,84.2L457.9,140.1z"/>
		<path class="st1" d="M514.5,186.3c-15.4,1.4-30.2-2.8-24.4-22.9c1-3.5,2.8-8.2,4.8-11.7l-1-1.6c0-0.4-0.4-1.4-0.4-1.7
			c0-0.7,0-1.7,0.4-2.1c0-0.4,0.4-0.7,0.7-0.7c0.7-0.7,1.7-0.5,2.4-0.2l1.4,0.2c6.2-8.5,16.5-21.4,25.8-22.2
			c3.8-0.3,6.5,2.5,5.8,6.4c-2,9.8-22,23.2-31.3,23.7c-1.4,3.2-3.1,6.8-3.8,10.3c-3.8,16.8,9.6,19.4,22.7,18.3
			c17.8-1.5,53.2-18.4,60.4-36.2l-0.4-1.4c-0.4-1,0-2,0.7-2.8c0.4-0.7,0.7-1.1,1.4-1.2c3.1-0.2,3.8,3.5,3.1,6.9
			C578,167.7,534.4,184.5,514.5,186.3z M502.1,147.2l2-0.6c7.2-1.7,17.5-7.3,19.6-16.1l-0.7-2l-0.7,0.1
			c-6.2,0.6-15.8,12.4-18.9,16.7L502.1,147.2z"/>
	</g>
	<g>
		<path class="st1" d="M210.4,287.9c11.2-49.2,63.7-131.1,103.5-172c19.3-19.8,45.6-42.2,70.3-44.3c21.6-1.9,31.3,9.3,25.9,30.9
			c-11.3,43.4-59.9,100.9-100.1,118c-5.8,2.4-16.2,6.9-21.6,7.3c-1.2,0.1-2.3-1.4-1.9-2.5c0.4-2.3,1.9-2.8,4.6-3.1
			c44-3.8,105.8-79.1,113.9-119.6c2.3-11.4-2.7-26-15.8-24.9C361.1,80,338.7,96.7,317,119c-41.8,42.7-88.5,114.8-100.5,167.1
			c-5.8,25.6-6.2,56.9,25.5,54.2c30.1-2.7,71.5-35.6,96.2-57.8c4.3-3.8,8.9-8.1,12.4-13l3.9-4.9c0.8-0.9,1.2-1.2,1.9-1.7
			c0.7-0.1,1.9-0.6,2.3-0.2c0,0,0.4,0.4,0.4,0.7c0.4,1.1-0.8,2.4-1.5,3.6c-27.8,31.7-79.2,74.5-115.4,77.7
			C210.8,347.3,203.8,316.6,210.4,287.9z"/>
		<path class="st1" d="M342.1,287.9c0.4-3.5,7-16.8,9.6-20.9l4.6-7.3c1.2-2,3.9-6.1,6.5-6.4c0.7-0.1,1.2,0.3,1.5,0.6
			c0.4,0.7-0.8,2.8-1.2,3.6l-6.5,10.6c-4.3,6.5-9.3,14.7-10.4,21c-1.2,5.9,0.4,10.8,6.2,11.8c13.2-8.5,19.7-24.5,22.8-37.1
			c-3.1-2.4-8.1-7.4-7-11.7c0.7-2.8,6.5-6.4,10.1-6.7c2.3-0.2,3.5,1.2,3.5,4.3c0,3.1-0.4,7.3-1.2,9.8c3.9,1.6,8.9,2.3,13.2,1.9
			c3.1-0.2,6.9-1.4,10.1-2.4l3.1-1c1.5-0.5,3.5-1,4.6-0.4c0.8,0.3,1.2,1,1.2,1.9c-0.7,4.3-15.1,7.5-18.9,7.8
			c-5,0.4-10.8,0.6-14.7-0.6c-2.3,6.4-4.6,14.3-8.1,20.8c-4.3,8.1-13.9,18.2-22,18.9C340.5,307,340.9,295.7,342.1,287.9z"/>
		<path class="st1" d="M344.4,417.8c8.1-36.3,44.8-85.8,69.1-118l-0.7-1.9c0-0.7,0.4-2,0-2.7s0-1.9,0.4-2.3c0.8-1.2,2.3-2.5,4.3-3.8
			c2.7-2.2,6.2-4,7.7-4.9c3.1-4.1,6.9-9.1,10.4-13.6c3.5-4.6,6.2-9.8,8.5-14.3l1.5-2.8l-2.7,1.8c-3.9,2.7-7.3,4.9-10.8,7.9
			s-6.9,6-10.4,8.6c-7,5.6-13.9,10.1-21.6,10.7c-4.3,0.4-6.2-1.8-5-6.5c2.7-11.4,17.4-23.9,28.6-27.6c1.5-0.5,3.5-0.7,4.6-0.4
			l1.9,0.2c1.5,0.2,3.9,0.4,4.3,1.5c0.4,0.7,0.8,1.9,0.4,2.7c0,0.7-0.7,1.6-1.5,2c-0.8,0.1-1.9,0.2-2.7,0.2l-5.4-1
			c-4.6,0.4-9.3,2.7-12.7,6.1l-7,6.4l-3.5,3.8l-1.9,5.6l3.9,0.4c8.5-0.7,24.3-14.1,31.3-19.7l6.2-5.2c0.8-0.4,1.9-1.3,3.1-1.8
			l1.5-0.9c1.9-0.9,4.6-2,5.4-1.2s1.2,2.2,0.4,4.6c-1.9,7.5-8.9,17.4-14.7,24.1l-3.1,3.8l4.3-1.9c7-2.9,25.9-14.2,30.1-19.6l3.1-3.8
			c0.8-0.9,1.2-1.7,1.9-2.1l0.4-0.4c1.2-0.5,2.7-1,3.1-0.7s0.4,1.1,0.4,2.3c-0.4,0.8-1.2,1.7-1.5,2.8l-0.8,1.6
			c-3.5,7.2-13.5,12.4-22,17.7c-8.9,5.4-18.2,10.1-25.5,13.8l-6.5,9.8l1.2,2.2c0.4,0.7,0.4,1.9,0.4,2.7l-0.4,1.6
			c-7.3,30.8-46.3,95.2-71,122c-0.8,0.9-1.5,1.7-2.3,2.2c-0.8,0.4-1.9,0.9-2.3,0.6c-1.5-0.2-2.7-2.1-2.7-4.4
			C343.2,423.3,344,419.8,344.4,417.8z M349.8,422.4l2.7-3.7c16.6-22.7,57.1-81.1,62.6-105.9l0.7-4.7V305l-2.3,2.9
			c-20.9,26.1-56.8,79.5-62.9,110.6L349.8,422.4z"/>
		<path class="st1" d="M458.7,281.9c0.8-4.3,9.6-29,14.3-29.5c0.7-0.1,1.5-0.6,2.3-0.2c0.4-0.1,0.4,0.4,0.7,0.7
			c0.4,0.4-1.2,2.8-1.5,3.6c-2.3,4.1-4.3,8.5-5.8,12.5c-1.9,4.4-3.1,10.3-4.6,14.3c10.8-2.5,26.2-20.1,32.4-28.7l2.3-4.4l1.5-2
			c0.4-0.8,1.5-2.5,2.7-3s2.3-1,3.1-0.7c0.8,0.3,0.4,1.5,0.4,2.7c-0.4,2.7-1.5,5.6-2.7,8l-4.6,8.2c-3.1,5.7-6.5,11.4-8.1,17.3
			c-0.8,2.8,0,6.2,1.2,8.8c10.4-0.9,32.8-24.5,39-32.7c1.9-2.5,3.5-5.7,5.4-7.8c0.8-0.9,1.9-2.5,3.1-3c1.2-0.5,2.7-1.4,3.1-0.7
			c0.4,0.4,0.4,1.1,0.4,1.9c0,0.8,0,1.5-0.7,2.4l-3.5,4.6c-8.5,12.4-34.3,39.3-47.1,40.4c-5.4,0.5-6.2-6.1-6.2-11.8
			c0-0.8,0.4-2.3,0.8-3.1l3.1-8.8l-3.5,3.4c-5.4,5.1-18.9,15.9-25.1,16.5c-1.9,0.2-3.1-0.9-3.1-2.4
			C457.5,286.3,458.3,283.9,458.7,281.9z"/>
		<path class="st1" d="M521.6,277.3c1.2-4.8,3.9-10,7.3-15.3l5-7.8l4.3-8.1c1.2-2,1.9-2.8,3.5-3c0.8-0.1,1.5,0.2,1.9,1
			c0.4,1.1,0,3.5-1.2,4.8l-0.4,0.4c-1.5,1.7-1.9,4-2.7,5.2l-3.5,5.3c-3.5,5.3-7,11.1-8.1,16.6v5.4l2.3,0.6c11.6-1,35.5-22,43.2-31.2
			l3.1-3.8l1.2-2c0.4-0.8,1.9-2.5,3.1-3s2.3-1.4,3.1-0.7c0.4,0.4,0.4,1.1,0.4,1.9c0,0.8-0.4,1.6-1.2,2.4l-3.5,4.1
			c-9.6,12-38.6,37.4-51.8,38.5C522,289.2,520,283.2,521.6,277.3z M547.1,226.4l0.4-0.8c0.4-1.2,0-2.7,0.4-3.9
			c2.3-7.5,7.7-17.3,15.4-21.8c0.7-0.4,1.9-1.7,2.3-1.7c0.7-0.1,1.9-0.6,2.3-0.2c0.4-0.1,0.7,0.3,0.7,0.7c0.4,0.7,0,1.9-0.7,2.8
			c-0.8,0.9-1.5,2.1-2.3,2.9l-3.5,3.4c-3.5,3.4-7.7,8-8.9,14.7l-0.8,4c-0.4,1.2-0.8,1.6-1.5,2.5c-0.8,0.9-1.9,0.6-2.7-0.1
			C547.5,228.2,546.7,227.5,547.1,226.4z"/>
		<path class="st1" d="M573.3,258l0.4-2.3c4.3-24.7,19.3-47.6,32.4-70.4c13.2-22.8,28.6-45.8,42.5-68.2
			c8.9-14.3,25.5-40.8,41.3-42.2c5.8-0.5,5.4,1.5,4.3,7C685,124,617.4,207.5,583,242.9c-1.5,4.4-3.5,9.6-4.3,14.3
			c-1.2,3.6-2.3,9.4-1.5,14c0.8,4.9,2.7,9.4,8.5,8.9c12.7-1.5,50.6-45.8,59.8-63.9l6.2-11.7c21.6-39.3,42.1-79.7,66.8-118.2
			c10.8-16.7,53.7-81.2,69.1-82.5c3.5-0.3,4.6,2.3,3.9,6.2c-1.9,7.9-7.7,17.3-14.7,26.7c-6.9,9.5-15.1,19.1-20.1,26.5l-16.2,22.6
			c-19.7,27.6-37.4,56.6-56.8,84.9c-7.7,11.5-15.4,23-24,34.2l-14.7,19.5c-4.6,7.3-12,32.3-13.9,40.6c-3.5,14.6-3.1,27.3-1.5,40.7
			l0.4,3.5c0.4,1.9,0.4,5,0,6.9v0.8c-0.4,2.7-1.9,4.4-3.5,3c-1.2-1-2.3-2.5-3.1-5.1c-1.2-4.1-1.5-8.8-1.9-10.6
			c-1.2-9.6-0.4-20.1,2.3-30.7c2.7-10.7,6.2-21.4,10.8-32.2l2.3-5.6l-0.4,0.1c-5.8,10.9-34.3,40.1-44.4,47.5c-1.2,0.9-3.1,1-4.3,1.5
			l-1.5,0.5c-1.5,0.5-3.5,1.1-5,0.8C570.6,285.3,571.4,269,573.3,258z M587.2,232.5l5-5.4c32.1-34.8,86.1-102.9,96.2-144.7l-0.4-0.7
			c-9.3,2.7-18.5,11.7-25.5,21.6s-13.2,20.8-17.4,28.2c-19.3,31.4-39.4,62.1-54.8,94.7L587.2,232.5z M744.4,72.8
			c5.4-7.8,14.7-18.7,23.2-29.8c8.1-10.7,14.3-22.5,17.8-30.5l1.2-2.8l-2.7,2.2c-19.3,15.6-33.6,35-47.1,54.7s-25.5,40.5-37.4,60.4
			c-12,20.4-24.3,45-35.9,65.7C690.3,154,716.6,110.7,744.4,72.8z"/>
		<path class="st1" d="M660.6,256.6c3.1-13.8,17.8-25.9,30.9-27.8c0.8-0.1,1.5-0.1,2.3-0.2c0.8-0.1,1.5,0.2,1.9,1l0.8,0.3
			c0.7,0.3,1.2,1.4,1.2,2.6v1.2c1.9,1,1.9,4.1,1.2,6.9c-1.2,5.5-4.3,10.8-5.4,15.9c-1.2,5.1-0.4,10.9,6.2,10.3
			c11.2-1,32.8-20.3,38.6-29.6l3.1-4.9c0.8-1.2,1.9-2.1,2.7-2.5l0.4-0.4c0.8-0.4,2.3-1,2.7-0.6c0.4,0.4,0.4,1.1,0.4,2.3
			c0,0.7-0.4,1.6-0.8,2.4l-3.5,4.9c-9.6,13.2-30.5,32.4-44.8,33.7c-7.3,0.6-11.2-4.4-11.2-11.4c0-1.2,0.7-2.4,1.2-3.6l5.4-15.5
			l-3.1,3c-3.5,3.4-8.1,8-12.7,12.3c-5,4.3-9.6,7.8-13.5,8.2C660.2,265.1,659.4,260.9,660.6,256.6z M666,259.2
			c5-2.3,10.1-5.9,13.9-10.1l5.8-5.9l5.8-9c-8.5,0.7-24,11.7-25.9,21.2L666,259.2z"/>
		<path class="st1" d="M643.2,401c4.3-20.4,46-67.3,60.6-82.1c18.5-18.6,38.6-37,57.5-55.2c5-12.4,10.4-25.3,13.9-37.5l1.5-5.6
			l-3.9,4.9c-8.5,10.8-22.8,25.1-35.1,26.2c-1.2,0.1-2.3,0.2-3.5-0.1h-0.4c-0.8,0.1-1.5-0.6-1.5-1c-0.4-0.7-0.4-1.9-0.4-2.3
			c4.3-13.9,24.3-34.2,37.4-35.3c2.3-0.2,3.1,1.3,3.1,4v1.9l0.8-0.9c0.7-0.4,1.5-0.9,1.9-1.3l0.4-0.1c0.7-0.4,1.5-0.5,2.3-0.2
			l0.4,0.7c0.8,0.7,1.5,2.2,1.2,3.4l-0.7,2.8l-1.2,7.4c-1.2,7-3.5,14.2-6.2,21.8l-1.2,3.2l3.1-2.6c10.4-8.6,35.1-30.5,46.3-31.5
			c2.7-0.2,5,1.1,4.3,3.5c-0.4,1.2-1.9,1.7-3.1,2.2c-0.7,0.1-1.5,0.1-1.9,0.2l-1.2-0.3c-9.6,0.9-43.2,31.6-51,38.4
			c-18.5,48.4-58.7,117.9-106.2,149.1c-2.7,1.8-5.8,2.8-8.9,3.1C642.8,418.7,641.3,409.6,643.2,401z M654,411.6
			c2.3-0.2,5.4-1.2,7.7-2.6c42.5-23.4,75.3-91.9,93.8-131l1.9-4l-3.5,3c-27.8,24.1-97.3,91.5-105.1,125
			C648.3,405.9,647.5,412.1,654,411.6z M738.2,246.3c5.8-0.5,12-3.8,16.6-8.8l6.5-7.2l5-10.9C757.2,220.3,743.3,239.3,738.2,246.3z"
			/>
		<path class="st1" d="M839.8,267.9c-17.4,1.5-34-3.2-27.4-25.8c1.2-4,3.1-9.1,5.4-13.2l-1.2-1.9c0-0.4-0.4-1.5-0.4-1.9
			c0-0.8,0-1.9,0.4-2.3c0-0.4,0.4-0.8,0.8-0.9c0.7-0.9,1.9-0.6,2.7-0.2l1.5,0.2c7-9.5,18.5-24,29-25c4.3-0.4,7.3,2.8,6.5,7.2
			c-2.3,11-24.7,26.1-35.1,26.6c-1.5,3.6-3.5,7.7-4.3,11.5c-4.3,18.9,10.8,21.8,25.5,20.6c20.1-1.7,59.8-20.7,67.9-40.7l-0.4-1.5
			c-0.4-1.1,0-2.3,0.8-3.1c0.4-0.8,0.7-1.2,1.5-1.3c3.5-0.3,4.3,3.9,3.5,7.8C911.2,247,862.1,265.9,839.8,267.9z M825.8,223.9
			l2.3-0.6c8.1-1.9,19.7-8.3,22-18.2l-0.7-2.2l-0.8,0.1c-7,0.6-17.8,13.9-21.2,18.8L825.8,223.9z"/>
	</g>
	<path class="st1" d="M496.8,337.8c0.4-1.5,1.9-3.7,3.4-4.3c22.7-8.1,55.2-16,78.5-21.5c89.7-21.9,180.3-34.5,267.3-33.5
		c20.4,0.3,41.4,0.6,61.5,3c4.6,0.4,36.6,9,36.8,13.6c0.1,1,0.1,2.6-0.4,3.6c-1,0.6-2,1.1-3,1.1c-1.5,0.1-3.6,0.1-4.6-0.4l-12.4-4.2
		c-7.8-2.3-16.1-6.1-19.1-6.5c-20.1-3.4-41.1-5.2-62.1-5.5c-107.4-0.7-232.6,16.2-340.1,56.9c-1.5,0.6-4.1,1.2-5.1,0.2
		C496.8,339.9,496.3,338.9,496.8,337.8z"/>
	<g>
		<g>
			<path class="st1" d="M790.3,340.2h-17.1v11.7c0,2.6,2.3,2.8,3,3c0.1,0.1,0.1,0.4,0.1,0.4h-9.9c0,0,0-0.3,0.1-0.4
				c0.7-0.2,3-0.4,3-3v-24.3c0-2.6-2.3-2.8-3-3c-0.1-0.1-0.1-0.3-0.1-0.3h9.9c0,0,0,0.2-0.1,0.3c-0.7,0.2-3,0.4-3,3v11.7h17.1v-11.7
				c0-2.6-2.3-2.8-3-3c-0.1-0.1-0.1-0.3-0.1-0.3h9.9c0,0,0.1,0.2-0.1,0.3c-0.7,0.2-3.1,0.4-3.1,3v24.3c0,2.6,2.4,2.8,3.1,3
				c0.1,0.1,0.1,0.4,0.1,0.4h-9.9c0,0,0-0.3,0.1-0.4c0.7-0.2,3-0.4,3-3L790.3,340.2L790.3,340.2z M797.1,355.6v-0.4V355.6z"/>
			<path class="st1" d="M846.5,330.2l1.4-6h24.6l1.3,6c0,0-0.2-0.1-0.3-0.1c-0.4-0.7-2.7-4.8-6.4-4.8H862v26.6c0,2.6,2.3,2.8,3,3
				c0.1,0.1,0.1,0.4,0.1,0.4h-9.9c0,0,0-0.3,0.1-0.4c0.7-0.2,3-0.4,3-3v-26.6h-5.2c-3.7,0-6.1,4.1-6.4,4.8
				C846.8,330.1,846.5,330.2,846.5,330.2z"/>
			<path class="st1" d="M882.1,354.8c0.7-0.2,3-0.4,3-3v-24.3c0-2.6-2.4-2.8-3-3c-0.1-0.1-0.1-0.3-0.1-0.3h21.9v5.9
				c0,0-0.3-0.1-0.4-0.1c-0.4-0.7-1.2-4.7-4.4-4.7h-10.4v14h8.5c2.6,0,3.3-3.2,3.5-4c0.1-0.1,0.4-0.1,0.4-0.1v9.2c0,0-0.3,0-0.4-0.1
				c-0.2-0.7-0.9-4-3.5-4h-8.5v11.7c0,2.6,2.3,2.3,3,2.3h7c3.8,0,7.8-5.7,8-6.5c0.1-0.1,0.3-0.1,0.3-0.1l-2.7,7.6H882
				C882,355.2,882,354.9,882.1,354.8z"/>
			<path class="st1" d="M915.3,354.8c0.7-0.2,3-0.4,3-3v-24.3c0-2.6-2.3-2.8-3-3c-0.1-0.1-0.1-0.3-0.1-0.3h9.9c0,0,0,0.2-0.1,0.3
				c-0.7,0.2-3,0.4-3,3v24.3c0,2.6,2.3,2.3,3,2.3h7c3.8,0,7.8-5.7,8-6.5c0.1-0.1,0.3-0.1,0.3-0.1l-2.7,7.6h-22.4
				C915.2,355.2,915.2,354.9,915.3,354.8z"/>
		</g>
		<path class="st1" d="M822.6,323.6c21.3,0,21.3,32.3,0,32.3S801.3,323.6,822.6,323.6z M822.6,354.9c16.2,0,16.2-30.3,0-30.3
			S806.4,354.9,822.6,354.9z M821.6,318h1.9l2.3,3.9h-1l-2.3-2.7l-2.3,2.7h-1L821.6,318z"/>
	</g>
</g>
</svg>
