<?xml version="1.0" encoding="utf-8"?>
<!-- Generator: Adobe Illustrator 24.0.1, SVG Export Plug-In . SVG Version: 6.00 Build 0)  -->
<svg version="1.1" id="Calque_1" xmlns="http://www.w3.org/2000/svg" xmlns:xlink="http://www.w3.org/1999/xlink" x="0px" y="0px"
	 viewBox="0 0 513.3 326.7" style="enable-background:new 0 0 513.3 326.7;" xml:space="preserve">
<g>
	<path d="M23.3,46.7H490c8.3,0,16-4.4,20.2-11.7c4.2-7.2,4.2-16.1,0-23.3C506,4.4,498.3,0,490,0H23.3C15,0,7.3,4.4,3.1,11.7
		C-1,18.9-1,27.8,3.1,35C7.3,42.2,15,46.7,23.3,46.7L23.3,46.7z"/>
	<path d="M490,140H23.3c-8.3,0-16,4.4-20.2,11.7c-4.2,7.2-4.2,16.1,0,23.3c4.2,7.2,11.9,11.7,20.2,11.7H490c8.3,0,16-4.4,20.2-11.7
		c4.2-7.2,4.2-16.1,0-23.3C506,144.4,498.3,140,490,140L490,140z"/>
	<path d="M490,280H23.3c-8.3,0-16,4.4-20.2,11.7c-4.2,7.2-4.2,16.1,0,23.3c4.2,7.2,11.9,11.7,20.2,11.7H490c8.3,0,16-4.4,20.2-11.7
		c4.2-7.2,4.2-16.1,0-23.3C506,284.4,498.3,280,490,280L490,280z"/>
</g>
</svg>
