<svg width="488" height="491" viewBox="0 0 488 491" fill="none" xmlns="http://www.w3.org/2000/svg">
<path d="M112.57 132.65C108.722 128.103 106.797 122.502 106.797 116.728V7.52801C106.797 3.32881 103.297 0.00460815 99.2693 0.00460815H56.2223C52.0192 0.00460815 48.695 3.32881 48.695 7.52801V116.728C48.695 122.501 46.7692 127.927 42.9216 132.654L9.49557 171.857C3.37057 179.209 0.222168 188.13 0.222168 197.408V482.658C0.222168 486.681 3.54637 490.006 7.74557 490.006H147.746C151.769 490.006 155.269 486.682 155.269 482.654V197.574C155.269 188.301 151.945 179.199 145.82 172.023L112.57 132.65ZM63.746 14.7H91.922V88.552H63.746V14.7ZM15.098 475.3V197.57C15.098 191.797 17.1996 186.019 20.8714 181.644L54.2974 142.269C60.2466 135.097 63.7466 125.996 63.7466 116.722V103.597H91.9226V116.898C91.9226 126.171 95.2468 135.273 101.196 142.273L134.798 181.648C138.474 186.023 140.571 191.796 140.571 197.574V217.699L56.2234 217.695C52.2 217.695 48.7 221.019 48.7 225.219V396.898C48.7 400.922 52.0242 404.422 56.2234 404.422H140.399V475.473L15.0994 475.477L15.098 475.3ZM140.398 389.198H63.75V232.398H140.398V389.198ZM306.828 264.768C306.828 250.944 305.953 237.291 304.203 223.995C303.68 220.495 300.527 217.518 296.851 217.518H195.001C191.326 217.518 188.177 220.319 187.65 223.995C185.9 237.296 185.025 250.944 185.025 264.768C185.025 334.944 207.951 390.588 238.4 398.648V475.296H202.701C198.677 475.296 195.349 478.62 195.349 482.819C195.349 486.843 198.673 490.171 202.701 490.171H288.974C292.997 490.171 296.325 486.847 296.325 482.819C296.325 478.62 293.001 475.296 288.974 475.296H253.275V398.648C283.9 390.601 306.826 334.773 306.826 264.768H306.828ZM290.203 232.569C291.078 240.444 291.601 248.495 291.777 256.546H200.078C200.254 248.319 200.602 240.444 201.652 232.569H290.203ZM200.078 271.245H291.953C290.555 338.444 267.101 384.815 246.101 384.815C224.753 384.815 201.48 338.616 200.078 271.245ZM429.858 428.565L437.381 427.167C437.557 427.167 437.905 427.167 438.256 426.991C488.654 411.241 489.881 376.94 486.557 352.44C482.007 320.764 456.631 290.315 455.409 288.917C454.011 287.343 452.085 286.468 449.808 286.468H358.632C356.358 286.468 354.257 287.343 352.858 288.917C351.808 290.315 326.256 320.593 321.881 352.44C318.557 376.94 319.608 411.241 370.182 426.991C370.534 427.167 370.706 427.167 371.057 427.167L378.581 428.565C379.104 428.565 379.807 428.741 380.507 428.741C383.307 437.139 383.307 444.315 380.331 451.491C373.331 467.764 352.331 475.815 352.155 475.815L351.979 475.991C351.456 476.166 350.928 476.342 350.581 476.866C350.229 477.041 349.881 477.041 349.53 477.565C349.178 477.741 349.006 478.264 348.655 478.616C348.479 478.967 348.131 479.315 347.956 479.666C347.78 480.018 347.78 480.541 347.78 480.893C347.604 481.416 347.428 481.944 347.428 482.467L347.252 482.643C347.252 483.166 347.428 483.518 347.428 483.694C347.604 484.393 347.604 484.569 347.604 485.092C347.604 485.268 347.78 485.268 347.78 485.268C347.956 485.444 347.956 485.791 348.131 485.967C348.483 486.666 348.831 487.018 349.182 487.541C349.358 488.065 349.706 488.065 349.881 488.241C350.233 488.764 350.756 488.94 351.28 489.291C351.456 489.291 351.803 489.467 351.979 489.467C352.858 489.991 353.733 489.991 354.608 489.991H453.835C454.71 489.991 455.585 489.991 456.46 489.467C456.636 489.467 456.983 489.291 457.159 488.944C457.683 488.768 458.21 488.592 458.733 488.069C458.909 487.893 459.257 487.893 459.433 487.37C459.956 487.018 460.132 486.494 460.483 485.795C460.659 485.62 460.835 485.272 460.835 485.096C460.835 485.096 461.011 485.096 461.011 484.92C461.186 484.745 461.011 484.221 461.186 483.87C461.362 483.346 461.362 482.995 461.362 482.471V482.295C461.362 481.944 461.186 481.245 461.011 480.721C460.835 480.37 460.835 479.846 460.659 479.495C460.483 478.971 460.136 478.795 459.96 478.444C459.784 477.92 459.436 477.569 459.261 477.393C458.909 476.87 458.561 476.869 458.21 476.694C457.686 476.17 457.159 475.994 456.636 475.819L456.46 475.643C456.284 475.643 435.284 467.768 428.284 451.319C425.307 444.495 425.307 436.967 428.108 428.569C428.632 428.741 429.331 428.565 429.858 428.565H429.858ZM362.131 301.345H446.307C452.08 309.044 468.705 331.97 471.682 354.544C471.858 356.118 472.205 357.692 472.205 358.919H336.055C336.231 357.521 336.231 356.118 336.579 354.544C339.731 331.97 356.356 309.044 362.13 301.345H362.131ZM336.057 373.794H472.377C470.275 393.22 458.377 405.118 434.4 412.646L427.4 413.873C412.173 416.498 396.599 416.498 381.377 413.873L374.377 412.646C350.053 405.119 338.15 393.22 336.053 373.794H336.057ZM414.631 457.267C417.779 464.619 422.682 470.568 427.932 475.119H380.682C385.932 470.568 390.659 464.619 393.983 457.267C397.659 448.869 398.358 439.943 396.432 430.142C399.057 430.665 401.682 430.665 404.307 430.665C406.932 430.665 409.557 430.665 412.182 430.142C410.081 439.943 410.78 449.044 414.631 457.267H414.631Z" fill="#005C8A"/>
</svg>
