<svg width="438" height="438" viewBox="0 0 438 438" fill="none" xmlns="http://www.w3.org/2000/svg">
<path d="M217.339 66.8353C180.288 66.8353 149.872 97.2144 149.872 134.219C149.872 171.224 180.289 201.603 217.339 201.603C254.391 201.603 284.806 171.224 284.806 134.219C284.806 97.2144 254.946 66.8353 217.339 66.8353ZM217.339 191.109C186.372 191.109 160.931 165.7 160.931 134.771C160.931 103.841 186.372 78.4322 217.339 78.4322C248.307 78.4322 273.747 103.841 273.747 134.771C273.747 165.7 248.307 191.109 217.339 191.109Z" fill="#005C8A"/>
<path d="M222.869 38.6665V5.52486C222.869 2.21148 220.659 0 217.338 0C214.02 0 211.806 2.20764 211.806 5.52486V38.6665C211.806 41.9799 214.016 44.1914 217.338 44.1914C220.655 44.1875 222.869 41.4251 222.869 38.6665Z" fill="#005C8A"/>
<path d="M169.78 56.341C170.888 56.341 171.439 56.341 172.546 55.7901C175.312 54.1334 175.864 50.82 174.757 48.0577L158.165 19.3356C156.507 16.5732 153.189 16.0222 150.423 17.128C147.658 18.7846 147.106 22.098 148.213 24.8604L164.804 53.5824C165.911 55.7901 168.122 56.341 169.781 56.341L169.78 56.341Z" fill="#005C8A"/>
<path d="M137.706 80.6435L108.952 63.5223C106.186 61.8656 102.869 62.9714 101.21 65.7299C99.5517 68.4924 100.659 71.8058 103.421 73.4623L132.178 90.5835C133.285 91.1345 133.837 91.1345 134.944 91.1345C136.603 91.1345 138.817 90.0287 139.92 88.3721C141.024 85.6135 140.472 82.3002 137.706 80.6435L137.706 80.6435Z" fill="#005C8A"/>
<path d="M121.669 138.086C124.435 138.086 127.2 135.878 127.2 132.561C127.2 129.247 124.99 127.036 121.669 127.036L88.4861 126.485C85.7203 126.485 82.9545 128.693 82.9545 132.01C82.9545 135.323 85.1648 137.535 88.4861 137.535L121.669 138.086C121.669 138.086 121.113 138.086 121.669 138.086Z" fill="#005C8A"/>
<path d="M103.972 202.156C105.079 202.156 105.631 202.156 106.738 201.605L136.048 185.589C138.814 183.933 139.921 180.619 138.258 177.857C136.599 175.094 133.282 173.989 130.516 175.649L101.207 191.665C98.4408 193.321 97.3337 196.635 98.9962 199.397C100.103 201.05 102.314 202.156 103.972 202.156L103.972 202.156Z" fill="#005C8A"/>
<path d="M146.554 249.104C147.661 249.655 148.213 249.655 149.32 249.655C150.979 249.655 153.193 248.549 154.296 246.892L171.994 218.724C173.653 215.962 172.546 212.649 170.336 210.992C167.57 209.335 164.252 210.441 162.594 212.649L144.895 240.816C143.237 244.134 144.344 247.447 146.554 249.104H146.554Z" fill="#005C8A"/>
<path d="M208.491 229.772L207.384 262.914C207.384 266.227 209.594 268.439 212.916 268.439C215.682 268.439 218.447 266.231 218.447 262.914L219.555 229.772C219.555 226.459 217.344 224.247 214.023 224.247C211.257 224.251 208.491 227.01 208.491 229.772Z" fill="#005C8A"/>
<path d="M259.368 214.307C256.602 215.964 255.495 219.277 257.158 222.039L272.642 251.313C273.749 252.969 275.408 254.075 277.618 254.075C278.725 254.075 279.277 254.075 280.384 253.524C283.15 251.868 284.257 248.554 282.594 245.792L267.11 216.518C265.451 213.756 262.134 212.65 259.368 214.307L259.368 214.307Z" fill="#005C8A"/>
<path d="M295.314 190.557L323.516 208.233C324.623 208.784 325.726 209.339 326.282 209.339C327.941 209.339 330.155 208.233 330.706 206.577C332.365 203.814 331.814 200.501 329.048 198.844L300.845 181.168C298.079 179.511 294.762 180.062 293.103 182.824C291.996 185.583 292.548 188.9 295.314 190.557H295.314Z" fill="#005C8A"/>
<path d="M346.743 146.371C349.509 146.371 352.275 144.163 352.275 140.846C352.275 137.532 350.065 135.321 347.299 135.321L314.116 133.664C311.351 133.664 308.585 135.872 308.585 138.634C308.585 141.948 310.795 144.159 313.561 144.159L346.743 146.371C346.192 146.371 346.192 146.371 346.743 146.371Z" fill="#005C8A"/>
<path d="M303.056 96.661C304.163 96.661 304.714 96.6611 305.822 96.1101L335.682 81.1963C338.448 80.0905 339.555 76.2262 337.892 74.0148C336.785 71.2524 332.916 70.1466 330.702 71.8072L300.842 86.721C298.076 87.8268 296.969 91.6911 298.631 93.9025C299.183 95.5592 300.842 96.6611 303.056 96.6611L303.056 96.661Z" fill="#005C8A"/>
<path d="M291.996 22.0976C289.23 20.4409 285.912 20.9919 284.254 23.7543L266.004 51.3707C264.346 54.1332 264.897 57.4466 267.663 59.1032C268.77 59.6541 269.873 60.2089 270.98 60.2089C272.639 60.2089 274.298 59.1031 275.405 58.0013L293.654 30.3848C294.758 27.0676 294.206 23.7542 291.996 22.0976H291.996Z" fill="#005C8A"/>
<path d="M37.0582 324.22C49.7764 324.22 60.8356 317.594 67.4747 307.65C73.558 317.59 85.173 324.22 97.8912 324.22C110.609 324.22 121.669 317.594 128.308 307.65C134.391 317.59 146.006 324.22 158.724 324.22C171.442 324.22 182.502 317.594 189.141 307.65C195.224 317.59 206.839 324.22 219.557 324.22C232.275 324.22 243.335 317.594 249.974 307.65C256.057 317.59 267.672 324.22 280.39 324.22C293.109 324.22 304.168 317.594 310.807 307.65C316.89 317.59 328.505 324.22 341.223 324.22C353.942 324.22 365.001 317.594 371.64 307.65C377.723 317.59 389.338 324.22 402.056 324.22C421.965 324.22 438 308.205 438 288.321C438 285.008 435.79 282.796 432.468 282.796C429.151 282.796 426.937 285.004 426.937 288.321C426.937 302.129 415.877 313.175 402.052 313.175C388.227 313.175 377.168 302.129 377.168 288.321C377.168 285.008 374.957 282.796 371.636 282.796C368.319 282.796 366.104 285.004 366.104 288.321C366.104 302.129 355.045 313.175 341.22 313.175C327.395 313.175 316.336 302.129 316.336 288.321C316.336 285.008 314.125 282.796 310.804 282.796C307.486 282.796 305.272 285.004 305.272 288.321C305.272 302.129 294.213 313.175 280.388 313.175C266.562 313.175 255.503 302.129 255.503 288.321C255.503 285.008 253.293 282.796 249.972 282.796C246.654 282.796 244.44 285.004 244.44 288.321C244.44 302.129 233.381 313.175 219.555 313.175C205.73 313.175 194.671 302.129 194.671 288.321C194.671 285.008 192.461 282.796 189.139 282.796C185.822 282.796 183.608 285.004 183.608 288.321C183.608 302.129 172.548 313.175 158.723 313.175C144.898 313.175 133.839 302.129 133.839 288.321C133.839 285.008 131.628 282.796 128.307 282.796C124.99 282.796 122.775 285.004 122.775 288.321C122.775 302.129 111.716 313.175 97.891 313.175C84.0658 313.175 73.0065 302.129 73.0065 288.321C73.0065 285.008 70.7962 282.796 67.4749 282.796C64.1574 282.796 61.9432 285.004 61.9432 288.321C61.9432 302.129 50.884 313.175 37.0588 313.175C23.2335 313.175 12.1743 302.129 12.1743 288.321C12.1743 285.008 9.96396 282.796 6.64265 282.796C3.32518 282.796 1.11096 285.004 1.11096 288.321C1.6703 308.201 17.7062 324.22 37.0625 324.22H37.0582Z" fill="#005C8A"/>
<path d="M37.0582 381.11C49.7764 381.11 60.8356 374.483 67.4747 364.539C73.558 374.479 85.173 381.11 97.8912 381.11C110.609 381.11 121.669 374.483 128.308 364.539C134.391 374.479 146.006 381.11 158.724 381.11C171.442 381.11 182.502 374.483 189.141 364.539C195.224 374.479 206.839 381.11 219.557 381.11C232.275 381.11 243.335 374.483 249.974 364.539C256.057 374.479 267.672 381.11 280.39 381.11C293.109 381.11 304.168 374.483 310.807 364.539C316.89 374.479 328.505 381.11 341.223 381.11C353.942 381.11 365.001 374.483 371.64 364.539C377.723 374.479 389.338 381.11 402.056 381.11C421.965 381.11 438 365.095 438 345.211C438 341.897 435.79 339.686 432.468 339.686C429.151 339.686 426.937 341.893 426.937 345.211C426.937 359.019 415.877 370.065 402.052 370.065C388.227 370.065 377.168 359.019 377.168 345.211C377.168 341.897 374.957 339.686 371.636 339.686C368.319 339.686 366.104 341.893 366.104 345.211C366.104 359.019 355.045 370.065 341.22 370.065C327.395 370.065 316.336 359.019 316.336 345.211C316.336 341.897 314.125 339.686 310.804 339.686C307.486 339.686 305.272 341.893 305.272 345.211C305.272 359.019 294.213 370.065 280.388 370.065C266.559 370.065 254.392 359.015 254.392 345.207C254.392 341.893 252.182 339.682 248.861 339.682C245.543 339.682 243.329 341.89 243.329 345.207C243.329 359.015 232.27 370.061 218.445 370.061C204.619 370.061 193.56 359.015 193.56 345.207C193.56 341.893 191.35 339.682 188.028 339.682C184.711 339.682 182.497 341.89 182.497 345.207C182.497 359.015 171.438 370.061 157.612 370.061C143.787 370.061 132.728 359.015 132.728 345.207C132.728 341.893 130.517 339.682 127.196 339.682C123.879 339.682 121.664 341.89 121.664 345.207C121.664 359.015 110.605 370.061 96.78 370.061C82.9548 370.061 71.8956 359.015 71.8956 345.207C71.8956 341.893 69.6852 339.682 66.3639 339.682C63.0465 339.682 60.8322 341.89 60.8322 345.207C60.8322 359.015 49.773 370.061 35.9478 370.061C22.1226 370.061 11.0634 359.015 11.0634 345.207C11.0634 341.893 8.853 339.682 5.53168 339.682C2.21422 339.682 0 341.89 0 345.207C1.67029 365.091 17.7062 381.11 37.0625 381.11H37.0582Z" fill="#005C8A"/>
<path d="M37.0582 438C49.7764 438 60.8356 431.373 67.4747 421.429C73.558 431.369 85.173 438 97.8912 438C110.609 438 121.669 431.373 128.308 421.429C134.391 431.369 146.006 438 158.724 438C171.442 438 182.502 431.373 189.141 421.429C195.224 431.369 206.839 438 219.557 438C232.275 438 243.335 431.373 249.974 421.429C256.057 431.369 267.672 438 280.39 438C293.109 438 304.168 431.373 310.807 421.429C316.89 431.369 328.505 438 341.223 438C353.942 438 365.001 431.373 371.64 421.429C377.723 431.369 389.338 438 402.056 438C421.965 438 438 421.984 438 402.101C438 398.787 435.79 396.576 432.468 396.576C429.151 396.576 426.937 398.783 426.937 402.101C426.937 415.909 415.877 426.954 402.052 426.954C388.227 426.954 377.168 415.909 377.168 402.101C377.168 398.787 374.957 396.576 371.636 396.576C368.319 396.576 366.104 398.783 366.104 402.101C366.104 415.909 355.045 426.954 341.22 426.954C327.395 426.954 316.336 415.909 316.336 402.101C316.336 398.787 314.125 396.576 310.804 396.576C307.486 396.576 305.272 398.783 305.272 402.101C305.272 415.909 294.213 426.954 280.388 426.954C266.562 426.954 255.503 415.909 255.503 402.101C255.503 398.787 253.293 396.576 249.972 396.576C246.654 396.576 244.44 398.783 244.44 402.101C244.44 415.909 233.381 426.954 219.555 426.954C205.73 426.954 194.671 415.909 194.671 402.101C194.671 398.787 192.461 396.576 189.139 396.576C185.822 396.576 183.608 398.783 183.608 402.101C183.608 415.909 172.548 426.954 158.723 426.954C144.898 426.954 133.839 415.909 133.839 402.101C133.839 398.787 131.628 396.576 128.307 396.576C124.99 396.576 122.775 398.783 122.775 402.101C122.775 415.909 111.716 426.954 97.891 426.954C84.0658 426.954 73.0065 415.909 73.0065 402.101C73.0065 398.787 70.7962 396.576 67.4749 396.576C64.1574 396.576 61.9432 398.783 61.9432 402.101C61.9432 415.909 50.884 426.954 37.0588 426.954C23.2335 426.954 12.1743 415.909 12.1743 402.101C12.1743 398.787 9.96396 396.576 6.64265 396.576C3.32518 396.576 1.11096 398.783 1.11096 402.101C1.6703 421.981 17.7062 438 37.0625 438H37.0582Z" fill="#005C8A"/>
</svg>
